<svg xmlns="http://www.w3.org/2000/svg" xmlns:xlink="http://www.w3.org/1999/xlink" viewBox="0 0 512 512"><defs><style>.cls-1{fill:url(#linear-gradient);}.cls-2{fill:#fff;}</style><linearGradient id="linear-gradient" x1="29.38" y1="482.63" x2="482.62" y2="29.38" gradientUnits="userSpaceOnUse"><stop offset="0" stop-color="#ffb75e"/><stop offset="1" stop-color="#ed8f03"/></linearGradient></defs><title>logo</title><g id="Layer_2" data-name="Layer 2"><rect class="cls-1" width="512" height="512" rx="100"/></g><g id="Layer_1" data-name="Layer 1"><path class="cls-2" d="M128,150.8a10,10,0,0,1,10-10H374a10,10,0,0,1,10,10v49.12c0,5.5,3.34,7,7.43,3.31L479,124.45a8.83,8.83,0,0,0,0-13.38L391.43,32.29C387.34,28.61,384,30.1,384,35.6V84.72a10,10,0,0,1-10,10H86.8a10,10,0,0,0-10,10V223a10,10,0,0,0,10,10H118a10,10,0,0,0,10-10ZM384,361.2a10,10,0,0,1-10,10H138a10,10,0,0,1-10-10V312.08c0-5.5-3.34-7-7.43-3.31L33,387.55a8.83,8.83,0,0,0,0,13.38l87.54,78.78c4.09,3.68,7.43,2.19,7.43-3.31V427.28a10,10,0,0,1,10-10H425.2a10,10,0,0,0,10-10V289a10,10,0,0,0-10-10H394a10,10,0,0,0-10,10Z"/></g></svg>