<svg xmlns="http://www.w3.org/2000/svg" xmlns:xlink="http://www.w3.org/1999/xlink" viewBox="0 0 512 512"><defs><style>.cls-1{fill:url(#linear-gradient);}.cls-2{fill:#fff;}</style><linearGradient id="linear-gradient" x1="22.03" y1="489.97" x2="489.97" y2="22.03" gradientUnits="userSpaceOnUse"><stop offset="0" stop-color="#ffb75e"/><stop offset="1" stop-color="#ed8f03"/></linearGradient></defs><title>logo</title><g id="Layer_2" data-name="Layer 2"><rect class="cls-1" width="512" height="512" rx="75"/></g><g id="Layer_1" data-name="Layer 1"><path class="cls-2" d="M128,145.8a5,5,0,0,1,5-5H379a5,5,0,0,1,5,5v59.12c0,2.75,1.67,3.49,3.72,1.66l95-85.48a4.4,4.4,0,0,0,0-6.68l-95-85.48c-2.05-1.83-3.72-1.09-3.72,1.66V89.72a5,5,0,0,1-5,5H81.8a5,5,0,0,0-5,5V228a5,5,0,0,0,5,5H123a5,5,0,0,0,5-5ZM384,366.2a5,5,0,0,1-5,5H133a5,5,0,0,1-5-5V307.08c0-2.75-1.67-3.49-3.72-1.66l-95,85.48a4.4,4.4,0,0,0,0,6.68l95,85.48c2,1.83,3.72,1.09,3.72-1.66V422.28a5,5,0,0,1,5-5H430.2a5,5,0,0,0,5-5V284a5,5,0,0,0-5-5H389a5,5,0,0,0-5,5Z"/></g></svg>