<svg id="Layer_1" data-name="Layer 1" xmlns="http://www.w3.org/2000/svg" xmlns:xlink="http://www.w3.org/1999/xlink" viewBox="0 0 510 510"><defs><style>.cls-1{fill:url(#linear-gradient);}.cls-2{fill:#fff;}</style><linearGradient id="linear-gradient" x1="74.69" y1="435.31" x2="435.31" y2="74.69" gradientUnits="userSpaceOnUse"><stop offset="0" stop-color="#41295a"/><stop offset="1" stop-color="#2f0743"/></linearGradient></defs><title>logo</title><circle class="cls-1" cx="255" cy="255" r="255"/><path class="cls-2" d="M165.44,175.56a10,10,0,0,1,10-10H336.56a10,10,0,0,1,10,10v34.33c0,5.5,3.18,6.82,7.07,2.93l58.3-58.3a10,10,0,0,0,0-14.15l-58.3-58.3c-3.89-3.89-7.07-2.57-7.07,2.93v34.33a10,10,0,0,1-10,10H139.22a10,10,0,0,0-10,10V228a10,10,0,0,0,10,10h16.22a10,10,0,0,0,10-10ZM346.56,336.67a10,10,0,0,1-10,10H175.44a10,10,0,0,1-10-10V302.33c0-5.5-3.18-6.81-7.07-2.93l-58.3,58.31a10,10,0,0,0,0,14.14l58.3,58.3c3.89,3.89,7.07,2.57,7.07-2.93V392.89a10,10,0,0,1,10-10H372.78a10,10,0,0,0,10-10V284.22a10,10,0,0,0-10-10H356.56a10,10,0,0,0-10,10Z" transform="translate(-1 -1)"/></svg>