<svg id="Layer_1" data-name="Layer 1" xmlns="http://www.w3.org/2000/svg" xmlns:xlink="http://www.w3.org/1999/xlink" viewBox="0 0 510 510"><defs><style>.cls-1{fill:url(#linear-gradient);}.cls-2{fill:url(#linear-gradient-2);}.cls-3{fill:#fff;}</style><linearGradient id="linear-gradient" x1="74.69" y1="435.31" x2="435.31" y2="74.69" gradientUnits="userSpaceOnUse"><stop offset="0" stop-color="#41295a"/><stop offset="1" stop-color="#2f0743"/></linearGradient><linearGradient id="linear-gradient-2" x1="1" y1="256" x2="511" y2="256" gradientUnits="userSpaceOnUse"><stop offset="0" stop-color="#fff"/><stop offset="1"/></linearGradient></defs><title>logo</title><circle class="cls-1" cx="255" cy="255" r="255"/><path class="cls-2" d="M256,2a254.06,254.06,0,0,1,98.87,488A254.07,254.07,0,0,1,157.13,22,252.52,252.52,0,0,1,256,2m0-1C115.17,1,1,115.17,1,256S115.17,511,256,511,511,396.83,511,256,396.83,1,256,1Z" transform="translate(-1 -1)"/><path class="cls-3" d="M165.44,165.56H346.56v54.33L419,147.44,346.56,75v54.33H129.22V238h36.22ZM346.56,346.67H165.44V292.33L93,364.78l72.44,72.44V382.89H382.78V274.22H346.56Z" transform="translate(-1 -1)"/></svg>